<?xml version="1.0" standalone="no"?>
<!DOCTYPE svg PUBLIC "-//W3C//DTD SVG 20010904//EN"
 "http://www.w3.org/TR/2001/REC-SVG-20010904/DTD/svg10.dtd">
<svg version="1.0" xmlns="http://www.w3.org/2000/svg"
 width="790.000000pt" height="251.000000pt" viewBox="0 0 790.000000 251.000000"
 preserveAspectRatio="xMidYMid meet">
<metadata>
Created by potrace 1.16, written by Peter Selinger 2001-2019
</metadata>
<g transform="translate(0.000000,251.000000) scale(0.100000,-0.100000)"
fill="#000000" stroke="none">
<path d="M0 1255 l0 -1255 221 0 221 0 -8 32 c-11 52 -8 150 6 158 9 6 3 24
-23 68 -48 82 -59 125 -46 178 6 24 17 48 25 55 11 9 8 15 -13 34 l-27 22 38
144 c41 157 56 193 86 209 18 10 19 13 5 26 -20 21 -19 37 6 86 29 58 51 133
58 203 l6 60 38 0 c35 0 41 -4 62 -42 37 -65 55 -140 55 -229 0 -91 -11 -134
-35 -134 -12 0 -15 -6 -9 -22 8 -27 7 -96 -5 -208 -7 -65 -13 -88 -28 -100
-19 -14 -19 -16 21 -77 23 -36 46 -61 54 -58 14 5 14 -1 13 -243 l0 -162 908
0 c902 0 909 0 904 20 -6 23 22 39 39 22 8 -8 8 -15 -2 -27 -11 -13 -9 -15 15
-15 20 0 26 4 21 15 -3 8 2 21 10 30 21 20 58 2 51 -26 -5 -19 9 -19 614 -19
l619 0 0 133 0 133 -30 22 c-20 16 -30 31 -30 50 0 25 -25 41 -333 218 l-332
192 -3 431 c-1 261 1 431 7 431 10 0 182 97 192 108 3 4 1 17 -6 29 -11 21
-13 20 -126 -46 l-114 -67 0 -459 0 -460 252 -145 c138 -80 281 -162 318 -183
37 -21 64 -41 61 -44 -2 -3 -96 48 -208 112 -112 65 -250 145 -308 178 -58 33
-113 67 -123 75 -16 14 -17 47 -15 475 3 397 5 461 18 468 25 13 427 242 544
309 62 36 111 71 114 82 3 11 13 18 29 18 36 0 83 28 83 49 0 29 25 45 49 31
24 -12 27 -30 9 -48 -9 -9 -9 -12 4 -12 8 0 27 -9 42 -21 20 -16 26 -17 26 -6
0 20 20 27 43 15 12 -6 17 -18 15 -35 -3 -24 8 -33 122 -99 69 -41 129 -74
133 -74 5 0 20 -9 34 -20 24 -18 27 -19 38 -3 15 20 37 8 33 -18 -2 -13 8 -24
36 -38 34 -18 40 -18 53 -6 8 8 18 15 22 15 15 0 33 -29 29 -47 -2 -11 7 -24
25 -36 25 -15 30 -16 43 -2 9 8 19 15 23 15 16 0 32 -29 29 -52 -2 -18 2 -24
20 -26 33 -5 38 -29 13 -56 -21 -23 -30 -86 -11 -86 5 0 15 -10 21 -22 10 -19
9 -24 -10 -36 -25 -17 -29 -73 -6 -92 19 -16 19 -44 0 -60 -20 -16 -20 -76 0
-84 19 -7 19 -40 0 -56 -12 -10 -15 -52 -17 -227 l-3 -216 -116 -66 c-263
-151 -266 -153 -261 -177 6 -30 -30 -51 -52 -29 -22 23 -76 -10 -76 -46 0 -32
-27 -46 -48 -25 -22 22 -72 -10 -72 -46 0 -18 -7 -29 -20 -33 -27 -9 -40 1
-40 30 0 17 7 26 23 30 19 5 23 11 19 36 -4 31 -22 31 -22 -1 0 -20 -22 -32
-45 -24 -11 5 -15 -2 -15 -26 0 -26 -5 -34 -30 -43 l-30 -11 0 -138 0 -138
1585 0 1585 0 0 211 c0 180 2 210 14 200 11 -10 23 1 60 54 27 38 40 65 32 65
-21 0 -34 47 -45 168 -7 73 -7 121 -1 138 13 33 13 34 -5 34 -29 0 -37 40 -33
154 3 103 6 116 38 181 33 66 37 70 72 73 l37 3 6 -48 c11 -78 35 -164 62
-226 25 -54 25 -58 9 -76 -17 -18 -17 -20 3 -30 30 -16 40 -41 77 -179 18 -69
35 -126 37 -128 2 -2 32 26 67 61 l64 65 -83 84 c-75 78 -91 106 -58 106 18 0
187 -173 187 -191 0 -17 -192 -209 -209 -209 -6 0 -1 -16 10 -35 34 -58 28
-111 -26 -210 -27 -49 -41 -84 -33 -83 10 2 13 -17 12 -89 l-1 -93 259 0 258
0 0 1255 0 1255 -3950 0 -3950 0 0 -1255z m1718 825 c64 -39 70 -69 65 -352
-2 -139 -6 -254 -8 -257 -3 -2 -5 116 -5 263 0 229 -2 272 -16 295 -34 57 -24
56 -494 61 l-435 6 430 2 c416 2 431 1 463 -18z m-767 -289 c1 -21 2 -22 6 -6
8 33 20 38 27 11 6 -26 7 -26 32 -10 19 13 22 19 12 25 -14 9 39 5 82 -6 17
-5 21 -4 11 3 -9 7 -2 9 25 8 22 0 42 -5 46 -11 5 -6 8 -5 8 3 0 6 7 12 16 12
9 0 12 -5 8 -12 -5 -8 -1 -8 10 1 15 13 19 13 27 0 5 -8 9 -9 9 -3 0 7 21 11
54 10 46 -1 53 -3 46 -16 -6 -12 -3 -16 13 -17 12 0 16 1 9 4 -10 4 -10 8 -2
18 12 14 44 9 35 -5 -3 -5 0 -12 7 -16 7 -4 10 -4 6 1 -4 4 0 14 10 21 14 10
20 10 35 -3 15 -15 17 -15 17 0 0 13 6 15 33 10 17 -3 38 -13 45 -22 12 -14
13 -13 9 6 -4 19 -2 21 13 13 14 -8 17 -21 16 -69 -2 -34 -9 -68 -17 -77 -9
-12 -10 -15 -1 -10 6 4 12 2 12 -3 0 -6 -4 -11 -10 -11 -5 0 -10 -6 -10 -12 1
-8 8 -5 18 7 16 19 77 32 66 14 -3 -5 0 -9 5 -9 6 0 12 -17 13 -37 1 -21 5 7
8 62 l6 100 4 -110 c3 -96 4 -103 10 -55 4 30 7 -82 8 -250 l2 -305 -55 -60
c-41 -44 -55 -66 -55 -89 0 -23 12 -42 55 -83 30 -29 55 -60 55 -69 0 -9 -25
-43 -55 -77 -41 -45 -55 -68 -55 -91 0 -24 12 -41 55 -81 47 -45 55 -57 55
-88 0 -20 -3 -37 -7 -38 -5 0 -17 -3 -28 -6 -11 -3 -29 -6 -40 -7 -16 -1 -20
-8 -21 -37 0 -20 -8 -46 -17 -59 l-16 -23 2 27 c1 15 9 31 17 36 10 6 12 12 4
20 -7 7 -15 0 -27 -25 -16 -34 -16 -36 4 -56 16 -16 23 -18 29 -9 5 8 9 7 13
-5 4 -9 3 -13 -3 -10 -6 3 -10 -1 -10 -9 0 -25 -33 -37 -67 -24 -37 14 -60 6
-75 -27 -9 -19 -8 -31 2 -49 16 -32 41 -37 79 -18 29 14 33 13 52 -4 l21 -19
-27 -22 c-31 -27 -100 -31 -144 -9 -27 14 -51 53 -51 81 0 26 -17 16 -24 -12
-11 -53 -38 -76 -97 -80 -68 -5 -116 21 -126 68 -4 22 -8 27 -14 17 -7 -10 -9
-9 -9 4 0 9 5 20 10 23 6 3 10 16 10 29 0 12 5 27 11 33 9 9 8 11 -4 9 -9 -1
-20 -5 -23 -9 -4 -4 -22 -7 -41 -7 -33 0 -33 0 -33 -48 0 -53 12 -72 47 -72
18 0 23 -6 23 -25 0 -23 -4 -25 -40 -25 -63 0 -90 33 -90 110 l0 60 -30 0
c-16 0 -30 4 -30 9 0 6 -8 9 -17 8 -10 0 -30 7 -45 17 -32 21 -36 28 -11 19
11 -4 14 -3 9 5 -4 7 -2 12 3 12 6 0 11 -5 11 -11 0 -6 7 -9 15 -5 8 3 15 0
15 -6 0 -6 2 -9 5 -6 11 10 -7 37 -21 31 -8 -3 -14 0 -14 7 0 6 -5 8 -10 5 -5
-3 -10 -1 -10 4 0 16 -33 13 -55 -3 -19 -14 -19 -15 -1 -35 11 -12 26 -21 35
-21 9 0 27 -7 39 -16 12 -8 28 -12 35 -8 6 4 9 4 5 -1 -4 -4 -1 -20 7 -36 21
-40 18 -74 -8 -105 -19 -22 -34 -28 -78 -31 -82 -6 -130 30 -100 77 8 12 13
12 29 -4 14 -12 32 -16 59 -14 33 3 38 6 38 28 0 20 -10 30 -54 52 -65 31 -81
50 -81 95 0 34 29 74 61 85 8 3 11 9 7 13 -4 4 -14 2 -23 -5 -8 -7 -15 -9 -15
-4 0 5 -5 2 -10 -6 -7 -11 -10 -8 -10 15 0 17 5 36 12 43 9 9 9 12 0 12 -9 0
-12 148 -10 643 1 353 4 608 8 567 4 -41 7 -59 9 -40 1 19 5 53 9 74 7 37 8
38 22 21 8 -11 10 -16 3 -12 -8 5 -14 -7 -19 -38 -3 -25 -4 -49 0 -52 3 -4 6
3 6 15 0 25 27 55 42 46 7 -5 9 0 6 14 -5 16 -2 19 11 14 14 -5 14 -3 3 11
-12 14 -10 16 15 13 15 -2 28 -5 28 -6 0 -1 8 -3 17 -5 10 -2 15 2 12 10 -4 9
8 11 43 10 29 -2 58 3 73 12 23 13 13 12 -27 -4 -16 -6 -16 -5 -4 10 7 9 9 17
3 17 -5 0 -12 -7 -16 -15 -6 -15 -36 -21 -36 -7 0 4 -9 8 -20 8 -11 0 -20 -3
-20 -7 0 -12 -25 -16 -45 -7 -18 8 -18 8 2 4 13 -2 26 0 29 5 3 5 -7 9 -22 9
-24 0 -26 3 -20 30 3 17 2 29 -2 26 -4 -2 -7 6 -7 18 0 18 6 22 38 22 33 0 37
-3 38 -25z m1034 -337 c14 -9 25 -22 25 -29 0 -7 7 -18 16 -25 36 -30 14 -62
-111 -157 -66 -50 -123 -92 -127 -92 -5 -1 -8 48 -8 108 l0 108 73 51 c78 56
95 60 132 36z m3981 -36 l74 -53 0 -107 c0 -60 -3 -108 -7 -108 -5 0 -62 42
-128 93 -91 70 -121 99 -123 118 -4 35 54 108 87 108 13 1 56 -22 97 -51z
m729 13 c40 -23 68 -73 68 -124 0 -65 -19 -205 -31 -219 -20 -26 -24 -77 -8
-94 9 -8 16 -21 16 -27 0 -7 35 -27 78 -45 140 -60 177 -96 184 -176 l3 -40
-205 -118 c-112 -65 -210 -118 -218 -118 -7 0 -105 53 -218 118 l-206 117 6
49 c3 27 12 59 21 72 9 14 62 46 124 76 137 67 162 102 125 173 -8 16 -17 57
-20 90 -2 33 -7 86 -10 117 -5 47 -3 63 15 91 27 44 41 56 88 73 47 18 146 10
188 -15z m-4325 -182 c0 -10 7 -19 15 -19 8 0 15 9 15 19 0 20 25 35 41 25 14
-8 11 -44 -4 -50 -13 -5 -17 -88 -4 -100 13 -13 7 -34 -9 -34 -12 0 -15 6 -11
21 4 15 2 19 -10 15 -8 -3 -19 -6 -24 -6 -5 0 -9 -6 -9 -14 0 -18 -14 -28 -32
-21 -16 6 -21 100 -7 127 5 10 6 18 1 18 -4 0 -8 9 -9 20 -1 11 2 18 8 15 5
-4 9 -2 9 4 0 6 7 8 15 5 8 -4 15 -15 15 -25z m2657 19 c4 -7 8 -17 8 -22 0
-5 6 -11 13 -13 7 -3 12 4 12 16 0 27 27 38 46 19 15 -15 10 -48 -8 -48 -5 0
-6 -5 -3 -10 4 -6 15 -8 24 -5 22 7 45 -19 37 -41 -4 -11 -14 -15 -31 -12 -27
6 -33 -10 -14 -29 17 -17 3 -43 -22 -43 -12 0 -23 8 -26 20 -5 20 -23 28 -23
11 0 -17 -30 -40 -45 -35 -17 7 -21 54 -4 54 6 0 9 5 7 12 -3 7 -18 12 -34 13
-20 0 -30 6 -32 19 -5 23 16 37 45 29 26 -6 28 -1 11 26 -6 10 -8 26 -5 35 8
19 33 21 44 4z m157 6 c9 -3 16 -12 16 -20 0 -20 16 -17 31 7 15 22 49 18 49
-6 0 -7 9 -24 20 -38 27 -34 25 -52 -12 -98 -28 -35 -33 -38 -48 -24 -21 19
-36 19 -44 -1 -8 -21 -50 -14 -54 9 -3 12 4 20 17 24 16 4 20 13 19 38 -1 17
2 37 5 42 4 6 -4 14 -18 17 -27 7 -35 40 -12 49 6 3 13 6 14 6 1 1 8 -2 17 -5z
m250 0 c9 -3 14 -10 11 -14 -2 -4 9 -21 25 -39 36 -37 37 -54 6 -85 -12 -13
-26 -32 -30 -41 -3 -10 -14 -15 -28 -13 -18 2 -23 9 -21 31 1 21 -4 31 -23 39
-30 14 -28 39 3 53 16 7 21 15 17 28 -3 10 0 24 6 32 14 17 13 17 34 9z
m-2809 -54 c24 -27 16 -79 -17 -103 -24 -18 -30 -19 -58 -7 -59 24 -63 101 -7
125 35 15 59 10 82 -15z m-678 -42 c79 -70 93 -86 93 -101 0 -25 -11 -47 -24
-47 -6 0 -62 -54 -124 -120 -81 -85 -120 -120 -136 -120 -28 0 -111 71 -119
101 -4 16 18 47 101 141 59 66 112 129 119 140 11 21 32 38 46 38 4 0 24 -15
44 -32z m3995 20 c9 -7 17 -18 19 -25 2 -6 52 -66 112 -132 74 -83 107 -127
107 -145 0 -30 -87 -106 -121 -106 -18 1 -54 33 -134 120 -60 66 -115 120
-121 120 -6 0 -16 12 -23 27 -12 26 -10 30 55 90 71 66 80 71 106 51z m-4015
-320 c100 -80 132 -130 98 -158 -8 -7 -15 -10 -15 -7 0 3 -51 -49 -113 -116
-65 -69 -123 -123 -135 -125 -32 -5 -122 75 -122 108 0 18 32 61 110 147 61
67 110 125 110 130 0 14 22 33 37 33 8 0 21 -6 30 -12z m4027 -13 c6 -11 59
-74 119 -141 66 -76 107 -130 107 -144 0 -27 -87 -109 -116 -110 -14 0 -47 27
-95 77 -41 43 -102 105 -136 139 -35 34 -63 66 -63 71 0 5 30 37 66 71 69 67
97 75 118 37z m-3955 -351 c65 -60 73 -80 41 -109 -11 -10 -20 -13 -20 -7 0 6
-54 -47 -121 -119 -95 -101 -125 -128 -140 -124 -15 5 -19 1 -19 -19 0 -14 -4
-26 -9 -26 -5 0 -9 -15 -9 -32 0 -55 -1 -58 -32 -58 l-30 0 0 106 c0 81 3 103
13 98 9 -6 9 -5 0 7 -7 9 -12 29 -11 45 1 16 -2 37 -6 47 -6 13 -3 17 15 18
13 1 29 1 35 0 17 -2 150 151 168 192 22 54 51 50 125 -19z m3932 40 c10 -9
16 -21 14 -27 -2 -7 33 -52 78 -100 81 -87 83 -89 133 -91 65 -4 77 -11 64
-36 -8 -15 -17 -18 -40 -13 -27 5 -30 3 -30 -19 0 -13 -5 -29 -11 -35 -9 -9
-8 -16 4 -28 9 -8 20 -14 25 -13 5 2 24 -7 41 -20 42 -30 42 -72 1 -113 -16
-17 -34 -28 -39 -25 -5 4 -11 1 -13 -5 -3 -8 -15 -9 -36 -4 -31 6 -45 25 -19
25 8 0 7 4 -3 10 -12 8 -9 10 13 10 16 0 26 -4 23 -8 -2 -4 5 -8 17 -9 12 0
16 1 9 4 -10 4 -8 9 7 20 31 21 27 58 -9 80 -17 10 -28 23 -25 31 3 8 0 10 -8
5 -6 -4 -27 -13 -46 -20 -48 -17 -76 0 -149 89 -72 88 -117 131 -139 134 -19
3 -33 22 -33 45 0 21 115 129 137 129 9 0 24 -7 34 -16z m423 -261 c6 -35 15
-53 24 -53 10 0 13 10 10 38 -3 20 -1 46 3 57 5 14 8 3 8 -33 1 -46 4 -54 25
-64 42 -19 56 -5 56 57 0 30 5 55 10 55 6 0 10 -25 10 -55 0 -47 -3 -57 -24
-71 -14 -8 -46 -19 -72 -22 -46 -7 -46 -7 -50 -49 -5 -58 10 -93 39 -93 30 0
35 -35 5 -37 -29 -3 -60 15 -52 29 4 6 3 8 -4 4 -16 -10 -26 13 -30 69 -4 68
-7 73 -39 77 -15 2 -27 6 -25 11 1 4 2 36 2 73 l0 65 48 -3 47 -3 9 -52z m210
26 l19 -31 19 31 c29 45 34 31 8 -19 -22 -43 -21 -70 2 -70 19 0 56 -43 63
-73 8 -29 -2 -70 -15 -62 -4 3 -7 -3 -6 -12 0 -9 -14 -27 -32 -39 -59 -41
-133 -15 -162 57 -23 54 16 124 75 135 41 7 44 24 15 72 -22 36 -24 42 -12 42
4 0 16 -14 26 -31z m159 24 c-38 -4 -43 -7 -43 -29 0 -21 5 -24 38 -25 l37 -2
-35 -6 c-26 -4 -36 -12 -38 -27 -3 -19 2 -22 43 -26 25 -2 50 1 55 6 6 6 10
34 10 64 l0 53 43 -3 42 -3 0 -50 c0 -27 6 -60 12 -71 17 -29 -6 -51 -36 -35
-28 15 -46 14 -70 -6 -25 -21 -33 -60 -18 -88 6 -11 11 -22 10 -25 -1 -3 20
-5 47 -5 26 0 46 3 44 7 -9 15 19 19 33 5 14 -13 13 -17 -10 -32 -15 -9 -31
-14 -37 -10 -5 3 -10 1 -10 -4 0 -19 -46 -12 -81 12 -27 19 -34 29 -32 53 2
22 0 25 -7 14 -7 -11 -10 -4 -10 27 0 23 5 45 10 48 19 12 10 25 -19 25 -28 0
-29 3 -33 48 -6 87 -3 92 50 90 l47 -1 -42 -4z m272 -79 c0 -38 -4 -80 -8 -94
-6 -19 -6 -21 2 -10 6 8 11 11 11 6 0 -5 10 0 23 12 l23 22 0 -55 c0 -51 -1
-54 -17 -39 -25 23 -38 10 -34 -36 3 -36 1 -40 -21 -40 l-24 0 0 155 0 155 23
-4 c20 -3 22 -8 22 -72z"/>
<path d="M1185 1405 c-22 -8 -52 -28 -67 -44 -39 -44 -44 -89 -20 -174 13 -46
21 -62 21 -44 1 15 4 28 9 29 18 3 69 8 89 8 12 0 42 16 68 35 25 19 47 35 50
35 9 0 45 -80 46 -102 1 -46 30 56 32 113 2 72 -18 102 -88 134 -61 28 -84 30
-140 10z"/>
<path d="M1010 840 c-67 -29 -84 -50 -91 -114 -4 -27 3 -32 159 -122 90 -52
168 -94 173 -94 5 0 9 45 9 100 0 100 0 101 -37 150 -40 53 -47 54 -92 6 -37
-40 -44 -33 -39 39 4 45 2 65 -6 64 -6 0 -40 -13 -76 -29z"/>
<path d="M1408 805 c2 -36 1 -65 -3 -65 -4 0 -25 16 -48 35 l-42 36 -27 -33
c-19 -23 -25 -39 -20 -53 4 -11 7 -59 7 -108 0 -48 3 -87 8 -87 4 0 73 37 153
83 l145 82 -4 42 c-3 24 -11 51 -18 60 -13 16 -129 73 -148 73 -5 0 -6 -29 -3
-65z"/>
<path d="M6498 1419 c-15 -6 -38 -30 -54 -56 -25 -44 -26 -47 -14 -107 19 -89
26 -96 28 -24 0 35 5 75 11 89 10 26 11 27 110 26 61 0 105 -4 110 -11 5 -6
13 -47 18 -91 l8 -80 14 74 c18 92 4 147 -44 170 -37 18 -150 24 -187 10z"/>
<path d="M6312 876 c-93 -46 -115 -67 -125 -122 l-6 -32 200 -115 200 -116
196 112 c107 61 197 117 200 123 2 7 -1 30 -7 53 -12 45 -41 66 -158 117 -68
29 -81 26 -82 -21 0 -46 -121 -245 -149 -245 -4 0 -30 31 -59 68 -48 64 -92
160 -92 204 0 26 -16 23 -118 -26z"/>
<path d="M3903 2065 c10 -9 15 -20 12 -24 -10 -18 38 -46 79 -46 35 0 41 -3
44 -22 2 -17 29 -38 97 -78 52 -30 103 -55 114 -55 12 0 21 -4 21 -10 0 -19
74 -58 92 -49 24 13 48 0 48 -25 0 -27 54 -60 78 -47 23 12 52 -4 52 -28 0
-10 12 -27 27 -36 21 -14 30 -15 45 -6 13 8 24 8 38 1 20 -11 28 -50 10 -50
-5 0 -10 -6 -10 -12 0 -7 11 -13 25 -13 14 0 25 6 25 13 0 6 -5 12 -11 12 -6
0 -9 10 -7 23 4 28 -47 58 -75 44 -27 -13 -47 -1 -47 27 0 15 -10 30 -26 41
-22 14 -30 15 -50 5 -19 -11 -26 -10 -39 0 -9 8 -14 22 -12 31 7 26 -50 61
-73 46 -24 -15 -50 -2 -50 26 0 18 -18 33 -97 79 -68 39 -102 53 -110 46 -15
-12 -36 0 -29 17 7 20 -65 56 -87 43 -29 -16 -59 0 -55 30 2 22 -2 28 -21 30
-23 4 -23 3 -8 -13z"/>
<path d="M3825 2041 c-3 -6 -18 -16 -33 -23 -15 -8 -111 -63 -214 -122 -167
-96 -210 -126 -179 -126 5 0 11 -6 13 -14 2 -10 71 25 229 115 222 128 226
131 215 155 -12 25 -21 30 -31 15z"/>
<path d="M3659 1843 c-130 -76 -284 -165 -342 -198 l-106 -60 0 -410 0 -410
319 -183 c301 -173 322 -183 350 -173 20 7 39 7 59 0 23 -8 35 -6 62 10 19 11
57 33 84 49 28 16 79 46 115 67 36 21 103 59 150 85 47 26 123 70 170 97 l85
49 3 407 2 406 -37 21 c-21 12 -72 41 -113 65 -41 24 -100 58 -130 75 -30 17
-83 48 -117 68 -148 88 -284 164 -301 168 -10 3 -118 -55 -253 -133z m-75
-315 c3 -18 10 -60 16 -92 5 -33 10 -97 10 -143 l0 -83 -52 0 -51 0 6 98 c4
54 10 119 13 145 6 39 4 47 -10 47 -14 0 -16 -17 -16 -145 0 -90 -4 -145 -10
-145 -6 0 -10 59 -10 156 l0 156 29 -4 c25 -4 31 0 36 19 8 34 33 28 39 -9z
m576 -52 l80 -81 0 -147 0 -148 68 0 c101 0 101 0 103 -158 1 -78 -3 -138 -9
-144 -5 -5 -70 -10 -147 -11 -129 -1 -138 1 -154 21 -15 20 -26 21 -194 24
-157 3 -180 5 -192 21 -9 13 -12 90 -10 340 1 177 6 330 10 339 9 23 16 23
202 25 l162 1 81 -82z m-553 -403 c-7 -152 -22 -223 -47 -223 -10 0 -21 7 -24
15 -10 26 -29 292 -23 309 5 12 19 16 53 16 l47 0 -6 -117z"/>
<path d="M4140 1020 c0 -24 5 -40 12 -40 7 0 29 -12 50 -26 l37 -26 66 48 c38
28 65 55 65 66 0 16 -11 18 -115 18 l-115 0 0 -40z"/>
<path d="M4306 920 c-31 -44 -58 -80 -61 -80 -2 0 -25 29 -50 65 -26 36 -49
65 -51 65 -2 0 -4 -31 -4 -70 l0 -70 115 0 115 0 0 85 c0 47 -2 85 -4 85 -2 0
-30 -36 -60 -80z"/>
<path d="M4673 1222 l-23 -3 0 -227 c0 -125 -4 -232 -8 -237 -4 -6 -59 -41
-124 -78 -64 -37 -119 -74 -122 -82 -3 -8 -16 -15 -30 -15 -14 0 -28 -4 -31
-10 -3 -5 1 -10 9 -10 8 0 19 -6 23 -14 6 -11 43 7 168 78 l160 92 3 209 c2
147 -1 217 -9 232 -9 17 -9 26 0 37 17 21 11 32 -16 28z"/>
</g>
</svg>
