<?xml version="1.0" encoding="iso-8859-1"?>
<!-- Generator: Adobe Illustrator 19.0.0, SVG Export Plug-In . SVG Version: 6.00 Build 0)  -->
<svg version="1.1" id="Layer_1" xmlns="http://www.w3.org/2000/svg" xmlns:xlink="http://www.w3.org/1999/xlink" x="0px" y="0px"
	 viewBox="0 0 499.2 499.2" style="enable-background:new 0 0 499.2 499.2;" xml:space="preserve">
<path style="fill:#EF934A;" d="M415.6,31.6c0-15.2-12.8-29.6-28-29.6H59.2C44,2,31.6,16.4,31.6,31.6v3.6v41.6v14v214V322v41.6
	c0,15.2,12.4,26.4,27.6,26.4H422c15.2,0,29.2-11.2,29.2-26.4V266h1.6c7.6,0,14.4-5.6,14.4-13.2v-55.2c0-7.6-6.8-11.6-14.4-11.6h-1.6
	v-19.6v-76V73.2c0-15.2-14-27.2-29.2-27.2h-6.8V31.6H415.6z"/>
<path style="fill:#E8BB85;" d="M407.6,338.8c0,4-2.4,7.2-6,7.2H43.2l-9.6-15.6l-2-228.4h370c4,0,6,1.2,6,5.2V338.8z"/>
<path style="fill:#E07D46;" d="M463.6,252.4c0,7.6-6,14-14,14h-128c-7.6,0-14-6-14-14V196c0-7.6,6-14,14-14H450c7.6,0,14,6,14,14
	v56.4H463.6z"/>
<circle style="fill:#B44F2B;" cx="357.6" cy="217.2" r="24"/>
<path style="fill:#E07D46;" d="M426.8,46c-1.6-13.6-13.2-24-27.2-24H72.8c-6.8,0-12,5.2-12,11.6c0,6.8,5.6,12,12,12L426.8,46z"/>
<path style="fill:#54B265;" d="M144.8,383.2c0,62.4,50.4,112,112.8,112S370.4,442,370.4,382H370h0.4c0-14.4-2.8-28-7.6-40l0,0l0,0
	c-16.4-42-57.2-72-105.2-72C195.2,270.4,144.8,321.2,144.8,383.2z"/>
<g>
	<path style="fill:#CCCCCC;" d="M370,382.8L370,382.8L370,382.8L370,382.8C370,383.2,370,383.2,370,382.8z"/>
	<path style="fill:#CCCCCC;" d="M362.8,342.8C362.4,342.8,362.4,342.4,362.8,342.8L362.8,342.8L362.8,342.8z"/>
</g>
<path d="M143.6,392H67.2c-16.8,0-37.6-15.2-37.6-32.8V82c0-2.4,1.6-4,4-4s4,1.6,4,4v277.2c0,12.8,16.8,24.8,29.6,24.8h76.4
	c2.4,0,4,1.6,4,4S146,392,143.6,392z"/>
<path d="M428.4,392h-56.8c-2.4,0-4-1.6-4-4s1.6-4,4-4h56.8c15.6,0,17.2-17.2,17.2-24.8V266c0-2.4,1.6-4,4-4s4,1.6,4,4v93.2
	C453.6,379.6,444,392,428.4,392z"/>
<path d="M449.6,182c-2.4,0-4-1.6-4-4V84.8c0-12.8-4-16.8-17.2-16.8H63.6c-22,0-34-4-34-25.2c0-2.4,1.6-4,4-4s4,1.6,4,4
	c0,13.2,3.6,17.2,26,17.2h364.8c17.6,0,25.2,7.6,25.2,24.8V178C453.6,180.4,452,182,449.6,182z"/>
<path d="M33.6,302c-2.4,0-4-1.6-4-4V24.8C29.6,7.6,48.4,0,67.2,0H394c16.8,0,23.6,6.8,23.6,24.8c0,2.4-1.6,4-4,4s-4-1.6-4-4
	C409.6,11.2,406.4,8,394,8H67.2c-10.8,0-29.6,3.6-29.6,16.8V298C37.6,300.4,36,302,33.6,302z"/>
<path d="M449.6,162c-2.4,0-4-1.6-4-4V69.2c0-12.8-4-17.2-17.2-17.2H69.6c-9.2,0-14-10-14-19.2c0-10,5.6-16.8,14-16.8H394
	c16,0,30.4,12,32.4,27.6V44h2c17.6,0,25.2,7.6,25.2,25.2V158C453.6,160.4,452,162,449.6,162z M69.6,24c-2,0-3.2,0.8-4.4,2.4
	s-1.6,4-1.6,6.8c0,5.2,2.4,11.2,6,11.2h348.8c-1.6-11.2-12.4-20-24-20H69.6V24z"/>
<path d="M452,268H323.6c-9.6,0-17.6-8-17.6-17.6V198c0-9.6,8-17.6,17.6-17.6H452c9.6,0,17.6,8,17.6,17.6v52.4
	C469.6,260,461.6,268,452,268z M323.2,188c-5.2,0-9.6,4.4-9.6,9.6V250c0,5.2,4.4,9.6,9.6,9.6h128.4c5.2,0,9.6-4.4,9.6-9.6v-52.4
	c0-5.2-4.4-9.6-9.6-9.6H323.2z"/>
<path d="M356.8,246.4c-15.6,0-28-12.4-28-28s12.8-28,28-28s28,12.4,28,28S372.4,246.4,356.8,246.4z M356.8,198c-11.2,0-20,9.2-20,20
	s9.2,20,20,20c11.2,0,20-9.2,20-20S368,198,356.8,198z"/>
<path d="M356.8,230c-6.8,0-12-5.2-12-12s5.2-12,12-12c2.4,0,4,1.6,4,4s-1.6,4-4,4s-4,1.6-4,4s1.6,4,4,4s4-1.6,4-4s1.6-4,4-4
	s4,1.6,4,4C368.8,224.8,363.2,230,356.8,230z"/>
<path d="M147.6,352H59.2c-16.8,0-29.6-13.6-29.6-31.6c0-2.4,1.6-4,4-4s4,1.6,4,4c0,13.6,9.2,23.6,21.6,23.6h88.4c2.4,0,4,1.6,4,4
	S150,352,147.6,352z"/>
<path d="M405.6,352h-42c-2.4,0-4-1.6-4-4s1.6-4,4-4h38l-0.8-78c0-2.4,1.6-4,4-4l0,0c2,0,4,1.6,4,4l0.8,82c0,1.2-0.4,2-1.2,2.8
	S406.8,352,405.6,352z"/>
<path d="M405.6,162L405.6,162c-2.4,0-4-2-4-4l0.4-50H60.8c-9.2,0-18.4,0-24.8-6c-4.4-4.4-6.4-10.8-6.4-20c0-2.4,1.6-4,4-4s4,1.6,4,4
	c0,6.8,1.2,11.6,4,14.4c4,4,11.2,4,19.2,3.6h2.8H406c1.2,0,2,0.4,2.8,1.2c0.8,0.8,1.2,1.6,1.2,2.8l-0.4,54
	C409.6,160.4,407.6,162,405.6,162z"/>
<path d="M256.4,499.2c-64,0-116.4-52-116.4-116.4s52-116.4,116.4-116.4s116.4,52,116.4,116.4S320.4,499.2,256.4,499.2z M256.4,274.8
	c-59.6,0-108.4,48.4-108.4,108.4c0,59.6,48.4,108.4,108.4,108.4c59.6,0,108.4-48.4,108.4-108.4S316,274.8,256.4,274.8z"/>
<path d="M248.4,422.4c-1.2,0-2-0.4-2.8-1.2l-34.4-34.4c-1.6-1.6-1.6-4,0-5.6s4-1.6,5.6,0l34.4,34.4c1.6,1.6,1.6,4,0,5.6
	C250.4,422,249.2,422.4,248.4,422.4z"/>
<path d="M248.4,422.4c-1.2,0-2-0.4-2.8-1.2c-1.6-1.6-1.6-4,0-5.6l57.2-57.2c1.6-1.6,4-1.6,5.6,0s1.6,4,0,5.6l-57.2,57.2
	C250.4,422,249.2,422.4,248.4,422.4z"/>
<g>
</g>
<g>
</g>
<g>
</g>
<g>
</g>
<g>
</g>
<g>
</g>
<g>
</g>
<g>
</g>
<g>
</g>
<g>
</g>
<g>
</g>
<g>
</g>
<g>
</g>
<g>
</g>
<g>
</g>
</svg>
